<svg width="141" height="68" viewBox="0 0 141 68" fill="none" xmlns="http://www.w3.org/2000/svg">
<path d="M25.6406 21.9263H8.69482V35.7837H28.3799V40H3.53857V0.898438H28.1113V5.1416H8.69482V17.71H25.6406V21.9263Z" fill="#FF7A00"/>
<path d="M47.5547 15.8838L56.9272 0.898438H62.9966L50.6431 20.2881L63.292 40H57.1689L47.5547 24.7461L37.8867 40H31.7905L44.4663 20.2881L32.0859 0.898438H38.1284L47.5547 15.8838Z" fill="#FF7A00"/>
<path d="M77.606 25.4175H64.5005V21.3623H77.606V25.4175Z" fill="#FF7A00"/>
<path d="M0.980469 67V49.9375H6.55859C8.41016 49.9375 9.80078 50.3203 10.7305 51.0859C11.668 51.8516 12.1367 52.9844 12.1367 54.4844C12.1367 55.2812 11.9102 55.9883 11.457 56.6055C11.0039 57.2148 10.3867 57.6875 9.60547 58.0234C10.5273 58.2812 11.2539 58.7734 11.7852 59.5C12.3242 60.2188 12.5938 61.0781 12.5938 62.0781C12.5938 63.6094 12.0977 64.8125 11.1055 65.6875C10.1133 66.5625 8.71094 67 6.89844 67H0.980469ZM3.23047 59.0195V65.1602H6.94531C7.99219 65.1602 8.81641 64.8906 9.41797 64.3516C10.0273 63.8047 10.332 63.0547 10.332 62.1016C10.332 60.0469 9.21484 59.0195 6.98047 59.0195H3.23047ZM3.23047 57.2148H6.62891C7.61328 57.2148 8.39844 56.9688 8.98438 56.4766C9.57812 55.9844 9.875 55.3164 9.875 54.4727C9.875 53.5352 9.60156 52.8555 9.05469 52.4336C8.50781 52.0039 7.67578 51.7891 6.55859 51.7891H3.23047V57.2148Z" fill="#FF7A00"/>
<path d="M25.3555 62.5469H18.207L16.6016 67H14.2812L20.7969 49.9375H22.7656L29.293 67H26.9844L25.3555 62.5469ZM18.8867 60.6953H24.6875L21.7812 52.7148L18.8867 60.6953Z" fill="#FF7A00"/>
<path d="M33.2773 65.1602H43.0391V67H30.6172V65.3125L39.9688 51.7891H30.7695V49.9375H42.6641V51.5898L33.2773 65.1602Z" fill="#FF7A00"/>
<path d="M55.6016 59.1133H48.207V65.1602H56.7969V67H45.957V49.9375H56.6797V51.7891H48.207V57.2734H55.6016V59.1133Z" fill="#FF7A00"/>
<path d="M65.8555 60.0977H61.8477V67H59.5859V49.9375H65.2344C67.1562 49.9375 68.6328 50.375 69.6641 51.25C70.7031 52.125 71.2227 53.3984 71.2227 55.0703C71.2227 56.1328 70.9336 57.0586 70.3555 57.8477C69.7852 58.6367 68.9883 59.2266 67.9648 59.6172L71.9727 66.8594V67H69.5586L65.8555 60.0977ZM61.8477 58.2578H65.3047C66.4219 58.2578 67.3086 57.9688 67.9648 57.3906C68.6289 56.8125 68.9609 56.0391 68.9609 55.0703C68.9609 54.0156 68.6445 53.207 68.0117 52.6445C67.3867 52.082 66.4805 51.7969 65.293 51.7891H61.8477V58.2578Z" fill="#FF7A00"/>
<path d="M85.3672 59.3945C83.4375 58.8398 82.0312 58.1602 81.1484 57.3555C80.2734 56.543 79.8359 55.543 79.8359 54.3555C79.8359 53.0117 80.3711 51.9023 81.4414 51.0273C82.5195 50.1445 83.918 49.7031 85.6367 49.7031C86.8086 49.7031 87.8516 49.9297 88.7656 50.3828C89.6875 50.8359 90.3984 51.4609 90.8984 52.2578C91.4062 53.0547 91.6602 53.9258 91.6602 54.8711H89.3984C89.3984 53.8398 89.0703 53.0312 88.4141 52.4453C87.7578 51.8516 86.832 51.5547 85.6367 51.5547C84.5273 51.5547 83.6602 51.8008 83.0352 52.293C82.418 52.7773 82.1094 53.4531 82.1094 54.3203C82.1094 55.0156 82.4023 55.6055 82.9883 56.0898C83.582 56.5664 84.5859 57.0039 86 57.4023C87.4219 57.8008 88.5312 58.2422 89.3281 58.7266C90.1328 59.2031 90.7266 59.7617 91.1094 60.4023C91.5 61.043 91.6953 61.7969 91.6953 62.6641C91.6953 64.0469 91.1562 65.1562 90.0781 65.9922C89 66.8203 87.5586 67.2344 85.7539 67.2344C84.582 67.2344 83.4883 67.0117 82.4727 66.5664C81.457 66.1133 80.6719 65.4961 80.1172 64.7148C79.5703 63.9336 79.2969 63.0469 79.2969 62.0547H81.5586C81.5586 63.0859 81.9375 63.9023 82.6953 64.5039C83.4609 65.0977 84.4805 65.3945 85.7539 65.3945C86.9414 65.3945 87.8516 65.1523 88.4844 64.668C89.1172 64.1836 89.4336 63.5234 89.4336 62.6875C89.4336 61.8516 89.1406 61.207 88.5547 60.7539C87.9688 60.293 86.9062 59.8398 85.3672 59.3945Z" fill="#FF7A00"/>
<path d="M107.703 67H105.441V59.1133H96.8398V67H94.5898V49.9375H96.8398V57.2734H105.441V49.9375H107.703V67Z" fill="#FF7A00"/>
<path d="M124.824 59.0195C124.824 60.6914 124.543 62.1523 123.98 63.4023C123.418 64.6445 122.621 65.5938 121.59 66.25C120.559 66.9062 119.355 67.2344 117.98 67.2344C116.637 67.2344 115.445 66.9062 114.406 66.25C113.367 65.5859 112.559 64.6445 111.98 63.4258C111.41 62.1992 111.117 60.7812 111.102 59.1719V57.9414C111.102 56.3008 111.387 54.8516 111.957 53.5938C112.527 52.3359 113.332 51.375 114.371 50.7109C115.418 50.0391 116.613 49.7031 117.957 49.7031C119.324 49.7031 120.527 50.0352 121.566 50.6992C122.613 51.3555 123.418 52.3125 123.98 53.5703C124.543 54.8203 124.824 56.2773 124.824 57.9414V59.0195ZM122.586 57.918C122.586 55.8945 122.18 54.3438 121.367 53.2656C120.555 52.1797 119.418 51.6367 117.957 51.6367C116.535 51.6367 115.414 52.1797 114.594 53.2656C113.781 54.3438 113.363 55.8438 113.34 57.7656V59.0195C113.34 60.9805 113.75 62.5234 114.57 63.6484C115.398 64.7656 116.535 65.3242 117.98 65.3242C119.434 65.3242 120.559 64.7969 121.355 63.7422C122.152 62.6797 122.562 61.1602 122.586 59.1836V57.918Z" fill="#FF7A00"/>
<path d="M130.449 60.3203V67H128.199V49.9375H134.492C136.359 49.9375 137.82 50.4141 138.875 51.3672C139.938 52.3203 140.469 53.582 140.469 55.1523C140.469 56.8086 139.949 58.0859 138.91 58.9844C137.879 59.875 136.398 60.3203 134.469 60.3203H130.449ZM130.449 58.4805H134.492C135.695 58.4805 136.617 58.1992 137.258 57.6367C137.898 57.0664 138.219 56.2461 138.219 55.1758C138.219 54.1602 137.898 53.3477 137.258 52.7383C136.617 52.1289 135.738 51.8125 134.621 51.7891H130.449V58.4805Z" fill="#FF7A00"/>
</svg>
